<?xml version="1.0" encoding="UTF-8" standalone="no"?>
<!DOCTYPE svg PUBLIC "-//W3C//DTD SVG 1.1//EN" "http://www.w3.org/Graphics/SVG/1.1/DTD/svg11.dtd">
<svg width="100%" height="100%" viewBox="0 0 1600 1200" version="1.1" xmlns="http://www.w3.org/2000/svg" xmlns:xlink="http://www.w3.org/1999/xlink" xml:space="preserve" xmlns:serif="http://www.serif.com/" style="fill-rule:evenodd;clip-rule:evenodd;stroke-linecap:round;stroke-linejoin:round;stroke-miterlimit:1.5;">
    <rect x="0" y="0" width="1600" height="1200" style="fill:none;"/>
    <g id="Route-1---2" serif:id="Route 1 - 2">
        <path d="M375.119,87.979C375.119,87.979 431.099,228.748 439.219,237.519C447.339,246.289 452.173,247.165 452.173,247.165C452.173,247.165 456.677,220.654 543.071,201.891L526.788,141.946C526.788,141.946 581.184,114.804 623.332,126.072L656.272,161.562C656.272,161.562 680.439,223.902 681.073,233.174C688.797,245.054 701.933,259.993 701.933,259.993L666.522,310.617L706.459,329.281C706.459,329.281 720.844,333.877 729.712,318.174C738.58,302.471 760.997,263.937 760.997,263.937C760.997,263.937 801.704,213.254 806.483,277.339C799.467,307.962 779.322,366.981 819.75,365.155C858.192,361.948 934.633,347.94 934.633,347.94L978.789,355.077" style="fill:none;stroke:rgb(248,0,0);stroke-width:5.5px;"/>
    </g>
</svg>
