<?xml version="1.0" encoding="UTF-8" standalone="no"?>
<!DOCTYPE svg PUBLIC "-//W3C//DTD SVG 1.1//EN" "http://www.w3.org/Graphics/SVG/1.1/DTD/svg11.dtd">
<svg width="100%" height="100%" viewBox="0 0 1600 1200" version="1.1" xmlns="http://www.w3.org/2000/svg" xmlns:xlink="http://www.w3.org/1999/xlink" xml:space="preserve" xmlns:serif="http://www.serif.com/" style="fill-rule:evenodd;clip-rule:evenodd;stroke-linecap:round;stroke-linejoin:round;stroke-miterlimit:1.5;">
    <rect x="0" y="0" width="1600" height="1200" style="fill:none;"/>
    <g id="Route-1---5" serif:id="Route 1 - 5">
        <path d="M375.027,89.809C375.027,89.809 423.581,243.714 451.131,243.478C437.765,264.148 414.955,286.52 414.955,286.52C414.955,286.52 390.459,334.448 368.35,337.947C335.951,369.749 316.98,471.77 313.815,496.431C338.451,513.617 384.298,550.352 621.503,590.071C612.412,618.444 606.972,644.741 606.972,644.741L618.315,647.664L594.164,764.56C594.164,764.56 638.201,805.804 680.501,806.468C679.929,853.809 677.734,912.585 677.734,912.585L617.044,904.226C617.044,904.226 604.12,902.51 602.588,913.655C601.79,916.744 599.965,930.858 599.965,930.858L615.897,933.336" style="fill:none;stroke:rgb(248,0,0);stroke-width:5.5px;"/>
    </g>
</svg>
