<?xml version="1.0" encoding="UTF-8" standalone="no"?>
<!DOCTYPE svg PUBLIC "-//W3C//DTD SVG 1.1//EN" "http://www.w3.org/Graphics/SVG/1.1/DTD/svg11.dtd">
<svg width="100%" height="100%" viewBox="0 0 1600 1200" version="1.1" xmlns="http://www.w3.org/2000/svg" xmlns:xlink="http://www.w3.org/1999/xlink" xml:space="preserve" xmlns:serif="http://www.serif.com/" style="fill-rule:evenodd;clip-rule:evenodd;stroke-linecap:round;stroke-linejoin:round;stroke-miterlimit:1.5;">
    <rect x="0" y="0" width="1600" height="1200" style="fill:none;"/>
    <g id="Route-2---3" serif:id="Route 2 - 3">
        <path d="M977.166,355.567L935.248,348.359C935.248,348.359 815.284,395.482 794.177,346.026C780.515,347.156 772.881,343.95 766.191,340.249C755.563,346.702 714.978,382.614 714.978,382.614L699.819,384.83L663.994,419.169L674.009,437.298C674.009,437.298 652.983,484.267 651.247,493.768L768.248,527.39C768.248,527.39 859.794,558.292 965.445,540.048C1061.89,565.323 1106.55,615.752 1175.31,631.274C1244.07,646.796 1377.03,665.748 1381.59,653.754C1383.24,632.132 1381.69,621.78 1387.65,615.669L1389.84,607.526" style="fill:none;stroke:rgb(248,0,0);stroke-width:5.5px;"/>
    </g>
</svg>
