<svg xmlns="http://www.w3.org/2000/svg" fill-rule="evenodd" stroke-linecap="round" stroke-linejoin="round" stroke-miterlimit="1.5" clip-rule="evenodd" viewBox="0 0 1600 1200">
  <path fill="none" stroke="#f80000" stroke-width="5.5" d="M375.119 87.979s55.98 140.769 64.1 149.54c8.12 8.77 12.954 9.646 12.954 9.646s4.504-26.511 90.898-45.274l-16.283-59.945s54.396-27.142 96.544-15.874l32.94 35.49s24.167 62.34 24.801 71.612c7.724 11.88 20.86 26.819 20.86 26.819l-35.411 50.624 39.937 18.664s14.385 4.596 23.253-11.107 31.285-54.237 31.285-54.237 40.707-50.683 45.486 13.402c-7.016 30.623-27.161 89.642 13.267 87.816 38.442-3.207 114.883-17.215 114.883-17.215l44.156 7.137"/>
</svg>