<?xml version="1.0" encoding="UTF-8" standalone="no"?>
<!DOCTYPE svg PUBLIC "-//W3C//DTD SVG 1.1//EN" "http://www.w3.org/Graphics/SVG/1.1/DTD/svg11.dtd">
<svg width="100%" height="100%" viewBox="0 0 1600 1200" version="1.1" xmlns="http://www.w3.org/2000/svg" xmlns:xlink="http://www.w3.org/1999/xlink" xml:space="preserve" xmlns:serif="http://www.serif.com/" style="fill-rule:evenodd;clip-rule:evenodd;stroke-linecap:round;stroke-linejoin:round;stroke-miterlimit:1.5;">
    <rect x="0" y="0" width="1600" height="1200" style="fill:none;"/>
    <g id="Route-1---3" serif:id="Route 1 - 3">
        <path d="M375.119,87.979L435.447,232.692C435.447,232.692 446.06,241.836 451.267,244.125C456.474,246.413 445.41,257.083 445.41,257.083L465.245,267.58L554.84,230.14L612.239,383.542L614.148,409.797C614.148,409.797 646.145,449.16 662.758,456.9C675.867,462.851 733.753,493.816 733.753,493.816L816.341,485.583C843.389,487.248 870.755,500.661 915.489,498.497C960.224,496.333 991.788,494.798 991.788,494.798C991.788,494.798 1026.86,508.488 1043.01,509.577C1059.15,510.667 1061.4,515.489 1069.6,519.471C1077.79,523.453 1095.36,521.621 1105.49,524.079C1115.62,526.538 1195.2,571.198 1218.47,587.081C1244.92,596.622 1270.38,623.927 1341.35,624.673C1378.41,617.792 1392.09,612.936 1392.09,612.936L1392.24,605.436" style="fill:none;stroke:rgb(248,0,0);stroke-width:5.5px;"/>
    </g>
</svg>
