<?xml version="1.0" encoding="UTF-8" standalone="no"?>
<!DOCTYPE svg PUBLIC "-//W3C//DTD SVG 1.1//EN" "http://www.w3.org/Graphics/SVG/1.1/DTD/svg11.dtd">
<svg width="100%" height="100%" viewBox="0 0 1600 1200" version="1.1" xmlns="http://www.w3.org/2000/svg" xmlns:xlink="http://www.w3.org/1999/xlink" xml:space="preserve" xmlns:serif="http://www.serif.com/" style="fill-rule:evenodd;clip-rule:evenodd;stroke-linecap:round;stroke-linejoin:round;stroke-miterlimit:1.5;">
    <rect x="0" y="0" width="1600" height="1200" style="fill:none;"/>
    <g id="Route-2---4" serif:id="Route 2 - 4">
        <path d="M975.347,353.628C975.347,353.628 959.17,358.148 938.91,347.69C915.012,355.526 827.51,366.091 827.51,366.091C827.51,366.091 799.369,369.757 795.158,347.229C785.611,348.651 780.47,347.262 780.47,347.262L765.631,339.952L714.495,382.235C714.495,382.235 699.217,384.872 692.982,390.428C686.951,397.486 663.155,419.604 663.155,419.604L673.725,437.65C673.725,437.65 650.567,470.254 652.663,493.113C618.63,479.163 594.782,471.168 586.285,459.184C576.715,479.173 544.321,572.526 544.321,572.526L471.279,555.104C471.279,555.104 458.112,609.696 458.112,632.744C463.55,692.585 473.338,699.38 466.138,728.002C442.588,727.399 244.701,695.146 244.701,695.146L219.071,719.063" style="fill:none;stroke:rgb(248,0,0);stroke-width:5.5px;"/>
    </g>
</svg>
