<?xml version="1.0" encoding="UTF-8" standalone="no"?>
<!DOCTYPE svg PUBLIC "-//W3C//DTD SVG 1.1//EN" "http://www.w3.org/Graphics/SVG/1.1/DTD/svg11.dtd">
<svg width="100%" height="100%" viewBox="0 0 1600 1200" version="1.1" xmlns="http://www.w3.org/2000/svg" xmlns:xlink="http://www.w3.org/1999/xlink" xml:space="preserve" xmlns:serif="http://www.serif.com/" style="fill-rule:evenodd;clip-rule:evenodd;stroke-linejoin:round;stroke-miterlimit:2;">
    <g id="Sight-Locations" serif:id="Sight Locations">
        <rect x="0" y="0" width="1600" height="1200" style="fill:none;"/>
        <g transform="matrix(0.694867,0,0,0.694867,111.302,19.2969)">
            <circle cx="371.921" cy="79.364" r="15.811" style="fill:rgb(235,235,235);"/>
        </g>
        <g transform="matrix(0.694867,0,0,0.694867,734.623,298.956)">
            <circle cx="371.921" cy="79.364" r="15.811" style="fill:rgb(235,235,235);"/>
        </g>
        <g transform="matrix(0.694867,0,0,0.694867,-47.0761,683.107)">
            <circle cx="371.921" cy="79.364" r="15.811" style="fill:rgb(235,235,235);"/>
        </g>
        <g transform="matrix(0.694867,0,0,0.694867,377.393,880.509)">
            <circle cx="371.921" cy="79.364" r="15.811" style="fill:rgb(235,235,235);"/>
        </g>
        <g transform="matrix(0.694867,0,0,0.694867,781.201,811.776)">
            <circle cx="371.921" cy="79.364" r="15.811" style="fill:rgb(235,235,235);"/>
        </g>
        <g transform="matrix(0.694867,0,0,0.694867,1131.14,533.866)">
            <circle cx="371.921" cy="79.364" r="15.811" style="fill:rgb(235,235,235);"/>
        </g>
    </g>
</svg>
